<?xml version="1.0" encoding="UTF-8" standalone="no"?>
<!-- Generator: Adobe Illustrator 21.0.0, SVG Export Plug-In . SVG Version: 6.00 Build 0)  -->

<svg
   xmlns:dc="http://purl.org/dc/elements/1.1/"
   xmlns:cc="http://creativecommons.org/ns#"
   xmlns:rdf="http://www.w3.org/1999/02/22-rdf-syntax-ns#"
   xmlns:svg="http://www.w3.org/2000/svg"
   xmlns="http://www.w3.org/2000/svg"
   xmlns:xlink="http://www.w3.org/1999/xlink"
   xmlns:sodipodi="http://sodipodi.sourceforge.net/DTD/sodipodi-0.dtd"
   xmlns:inkscape="http://www.inkscape.org/namespaces/inkscape"
   version="1.1"
   x="0px"
   y="0px"
   viewBox="0 0 64.000002 64.000002"
   xml:space="preserve"
   id="svg2"
   inkscape:version="0.91 r13725"
   sodipodi:docname="logo-small.svg"
   width="64"
   height="64"><metadata
     id="metadata182"><rdf:RDF><cc:Work
         rdf:about=""><dc:format>image/svg+xml</dc:format><dc:type
           rdf:resource="http://purl.org/dc/dcmitype/StillImage" /><dc:title></dc:title></cc:Work></rdf:RDF></metadata><defs
     id="defs180" /><sodipodi:namedview
     pagecolor="#ffffff"
     bordercolor="#666666"
     borderopacity="1"
     objecttolerance="10"
     gridtolerance="10"
     guidetolerance="10"
     inkscape:pageopacity="0"
     inkscape:pageshadow="2"
     inkscape:window-width="918"
     inkscape:window-height="902"
     id="namedview178"
     showgrid="false"
     inkscape:zoom="2.5561875"
     inkscape:cx="52.152096"
     inkscape:cy="46.555781"
     inkscape:window-x="65"
     inkscape:window-y="24"
     inkscape:window-maximized="0"
     inkscape:current-layer="svg2" /><style
     type="text/css"
     id="style4">
	.st0{fill:#662483;}
	.st1{fill:#BD99C7;}
	.st2{clip-path:url(#SVGID_2_);fill:#575756;}
	.st3{clip-path:url(#SVGID_2_);fill:#B2B2B2;}
	.st4{clip-path:url(#SVGID_4_);fill:#575756;}
	.st5{clip-path:url(#SVGID_4_);fill:#B2B2B2;}
	.st6{fill:#575756;}
</style><g
     id="g3314"
     transform="matrix(0.17467404,0,0,0.17467404,-4.4437601,51.197138)"><g
       transform="translate(0,-305.29999)"
       id="Calque_1"><g
         id="g7"><path
           style="fill:#662483"
           inkscape:connector-curvature="0"
           id="path9"
           d="m 200.4,331.6 c 0.5,-0.2 1.1,-0.4 1.6,-0.6 1.3,-0.5 2.4,-0.9 3.1,-1.5 3.4,-3.1 7.3,-5.7 11,-8.2 4.3,-2.9 8.3,-5.6 11.7,-9 5.2,-5.3 10.9,-8.3 16.2,-10.6 1.4,-0.6 2.8,-1.4 4.1,-2.2 4.7,-2.9 9.5,-6.2 12.4,-11.3 1,-1.8 2.7,-3.5 4.6,-4.6 9.2,-5.3 18.8,-10.8 24.5,-20.5 1,-1.8 3.2,-2.5 4,-2.7 9.5,-2.4 15.9,-8.6 19.6,-18.9 1.2,-3.4 3.1,-5.6 6.3,-7.2 10.5,-5.3 15,-12.3 13.9,-22.2 -0.2,-1.9 0.8,-3.8 1.9,-5 5.4,-5.7 7.4,-12.7 5.9,-21.5 -0.2,-0.9 -0.3,-2.8 0.4,-4.5 0.6,-1.6 1.4,-3.1 2.1,-4.5 0.2,-0.4 0.4,-0.7 0.6,-1.1 l 0,-3.3 c -0.5,-1.8 -1.1,-3.6 -1.8,-5.5 -1.3,-3.5 -2.6,-7.1 -2.9,-11.3 -0.5,-6.1 -3.7,-11 -9.1,-14.1 -1.7,-1 -2.6,-3 -3.2,-4.5 -2.6,-6.9 -6.8,-11.5 -12.8,-14.1 -1.6,-0.7 -2.7,-1.5 -3.4,-2.5 -4.3,-6 -10.1,-9 -17.6,-9 -1.9,0 -4,-0.9 -5.3,-2.3 -3.6,-3.8 -8,-5.8 -12.8,-5.8 -2.6,0 -5.3,0.6 -8,1.8 -1,0.4 -2.2,0.7 -3.3,0.7 -0.7,0 -1.3,-0.1 -1.9,-0.3 -2.3,-0.7 -4.6,-1 -6.9,-1 -5.8,0 -11.2,2.2 -16.5,6.8 -1.7,1.5 -3.4,2.3 -4.9,2.4 -12.6,0.8 -21.7,7.3 -28.8,20.3 -0.2,0.4 -0.4,0.8 -0.7,1.3 l -4.1,7.9 -1.7,-7.6 c -1.6,-7.1 -5.7,-10.9 -13.1,-12.1 -1.7,-0.3 -3,-1.2 -4,-2 -0.2,-0.2 -0.4,-0.3 -0.6,-0.4 -2.6,-1.8 -5.2,-3.6 -7.9,-5.4 l -3.5,-2.4 c -0.2,-0.1 -0.4,-0.3 -0.7,-0.4 -0.8,-0.4 -1.7,-1 -2.5,-1.9 -3.5,-4.6 -7.9,-6.9 -13.2,-6.9 -1.4,0 -2.8,0.2 -4.3,0.5 -1.4,0.3 -2.7,0.5 -4,0.5 -2.7,0 -5.2,-0.7 -7.9,-2.2 l -4.4,0 c -0.3,0.1 -0.6,0.2 -0.9,0.4 -0.7,0.3 -1.5,0.6 -1.8,0.8 -2.4,2.3 -5,2.6 -7,2.6 -0.6,0 -1.2,0 -1.9,-0.1 l -0.1,0 c -0.7,0 -1.3,0 -1.9,0 -7,0 -11.5,2.1 -14.5,6.9 l -1,1.6 -1.8,-0.3 c -0.9,-0.1 -1.8,-0.2 -2.7,-0.2 -8.8,0 -11.9,7.1 -13.5,12.5 l -0.3,1 -0.9,0.6 c -1.2,0.8 -2.4,1.5 -3.5,2 -1.9,1 -3.3,1.8 -4.1,2.8 -1.5,2.1 -2.7,5 -3.5,8.8 l -0.1,0.6 c -0.6,3 -1.4,6.4 -5.4,8.7 -0.4,0.2 -1.3,1.3 -2,4 -1.6,5.7 -1.5,11.9 0.3,19.5 0.5,2 0.6,3.8 0.3,5.3 -3.3,18.3 2.1,33.2 16.5,45.4 1.2,1 2.4,2.2 2.8,3.9 2.1,8.9 7.7,15.2 18.3,20.4 1.4,0.7 3.7,2.1 4.5,4.4 2.8,7.9 8.2,13 16.5,15.5 2.6,0.8 4.4,2.2 6,4.7 4.8,7.4 9.8,14.2 19.2,15.4 1.4,0.2 2.8,1.1 3.5,2.3 1.3,2.3 2.6,4.6 3.9,7.1 l 3.3,6 -4,0.6 c -1.1,0.2 -2.2,0.4 -3.3,0.5 -2.4,0.4 -4.9,0.8 -7.5,1.1 -2.1,0.2 -4.1,0.3 -5.9,0.3 -8.4,0 -15.6,-1.9 -22.1,-5.9 -5.5,-3.4 -11.9,-6.7 -18.8,-9.8 -11.2,-4.9 -21.3,-7.3 -30.9,-7.3 -10.8,0 -20.7,3 -30.3,9.1 -5.2,3.3 -10.1,6.8 -12,12.8 l 0,3.5 c 0.2,0.3 0.3,0.6 0.4,1.1 0.9,4.1 4.4,6 7.5,6 2.6,0 5,-1.1 6.7,-3.2 2,-2.4 4.9,-4.6 8,-6.1 6.9,-3.4 14.1,-5.1 21.3,-5.1 8.2,0 16.7,2.2 25.3,6.7 4,2.1 7.9,4.4 11.7,6.9 8.5,5.7 18.4,8.4 31.2,8.7 0.8,0 1.7,0 2.5,0 12.1,0 24.3,-1.5 37.3,-4.6 0.6,-0.2 1.3,-0.2 2,-0.2 1.1,0 2.6,0.2 3.9,1.1 3.5,2.6 7,5.3 10.3,8 0.9,0.7 1.8,1.4 2.7,2.2 l 3.7,0 z"
           class="st0" /><path
           style="fill:#bd99c7"
           inkscape:connector-curvature="0"
           id="path11"
           d="m 201.1,324.4 c 1.7,-1.2 4.3,-2.7 6.1,-4.2 -7.1,-13.9 -14.5,-27.9 -17.1,-44.5 l -8.6,3.4 c 1.9,11 7.1,22.4 10.5,31.6 2.1,5.7 4.8,10.1 8.5,13.4 -0.1,0.1 0.3,0.3 0.6,0.3 z"
           class="st1" /><path
           style="fill:#bd99c7"
           inkscape:connector-curvature="0"
           id="path13"
           d="m 244.6,294.2 -1.3,-2 c -2,-3.1 -5.4,-7.1 -6,-8.3 -0.9,-1.8 -1.8,-4.5 -4,-4.4 -1.5,0.1 -2.6,-0.4 -4.1,-0.6 1.2,6.1 4.3,14.3 9.1,19.2 l 6.3,-3.9 z"
           class="st1" /><path
           style="fill:#bd99c7"
           inkscape:connector-curvature="0"
           id="path15"
           d="m 217.6,313.2 -3.3,-5.9 c -3.1,-7 -6.1,-13.6 -9,-20.3 -1.1,-2.6 -2.2,-5.5 -2.5,-8.5 -0.2,-2.3 -0.4,-3.3 -3.6,-3.2 -2,0 -3.9,-0.1 -5.8,-0.3 2.8,14.6 10.1,33.2 17.1,43.7 l 7.1,-5.5 z"
           class="st1" /></g><path
         style="fill:#bd99c7"
         inkscape:connector-curvature="0"
         id="path17"
         d="m 309.5,171.9 c 1.3,-2.5 2.8,-4.4 4.1,-6.8 0.2,-0.1 3.5,-0.8 4,-0.9 5,-1.3 10.1,-2.5 15,-3.7 l 1.3,-0.3 c 0.2,-0.1 0.4,-0.1 0.7,-0.1 0.6,2.8 1.5,5.3 2.3,7.6 -0.8,0.1 -1.5,0.2 -1.6,0.2 -6.9,1.3 -13.8,2.5 -21.2,3.8 -0.4,0.1 -4.2,0.2 -4.6,0.2 z"
         class="st1" /><path
         style="fill:#bd99c7"
         inkscape:connector-curvature="0"
         id="path19"
         d="m 315.5,162.2 c 1,-2.7 2.3,-4.7 3.3,-7.2 0.1,-0.1 3.4,-1.1 3.9,-1.4 4.8,-1.9 1.6,-0.6 6.4,-2.3 l 1.3,-0.5 c 0.7,-0.3 1.3,-0.5 1.8,-0.6 1,1.6 1.6,3.4 1.8,5.5 0.1,0.7 0.2,1.5 0.3,2.2 -0.8,0.2 -1.5,0.4 -1.6,0.4 -6.7,2.1 -5.4,1 -12.5,3.1 -0.6,0.2 -4.3,0.7 -4.7,0.8 z"
         class="st1" /><path
         style="fill:#bd99c7"
         inkscape:connector-curvature="0"
         id="path21"
         d="m 306.4,176.3 c 0.4,-0.6 1,-1.1 1.8,-1.1 2.3,-0.3 7.3,-0.7 7.7,-0.9 5,-1.3 9.9,-1.8 14.8,-3 L 332,171 c 1.2,-0.3 2,-0.4 2.6,-0.4 0,0 1.6,-0.2 3.2,-0.3 0.3,0.9 0.6,1.8 0.9,2.6 l 0,1.2 c -0.7,1.5 -1.6,3.1 -2.3,4.9 -0.2,0.4 -0.3,0.8 -0.4,1.3 -7,1 -17,1.1 -23.7,2.3 -0.2,0 -2.9,0.3 -5.5,0.5 -2,0.2 -3.3,-2.1 -2.2,-3.7 0.6,-1.2 1.2,-2.2 1.8,-3.1 z"
         class="st1" /><path
         style="fill:#bd99c7"
         inkscape:connector-curvature="0"
         id="path23"
         d="m 297.4,195.7 c -1.6,0.1 -2.7,-1.6 -1.8,-3 0.7,-1 1.3,-2 1.7,-2.5 2.8,-3.8 11.7,-3.6 15.7,-3.9 5.2,-0.4 10.4,-1.3 15.5,-2.2 2.3,-0.4 4.6,-0.8 6.9,-1.1 -0.1,1.4 0,2.6 0.2,3.6 0.3,1.9 0.4,3.7 0.4,5.3 -9.3,1.3 -21.3,1.9 -30.8,3.2 -0.9,0 -4.7,0.3 -7.8,0.6 z"
         class="st1" /><path
         style="fill:#bd99c7"
         inkscape:connector-curvature="0"
         id="path25"
         d="m 290.1,201.1 c 2.8,-3.8 14.8,-3.1 18.9,-3.4 5.2,-0.4 10.4,-1.3 15.5,-2.2 2.7,-0.5 5.4,-0.9 8.1,-1.3 0.2,0 0.4,0 0.6,0 0,0 0,0 0,0 1,0 1.8,0.4 2.4,1.1 -0.7,3 -2.1,5.6 -4.4,8 -0.6,0.7 -1.3,1.5 -1.8,2.5 -9.3,1.3 -19.1,1.1 -28.8,2.4 -0.8,0.1 -5.5,0.4 -9.7,0.7 -2.8,0.2 -4.4,-3 -2.7,-5.1 0.8,-1.3 1.5,-2.3 1.9,-2.7 z"
         class="st1" /><path
         style="fill:#bd99c7"
         inkscape:connector-curvature="0"
         id="path27"
         d="m 280.8,220.1 c -0.5,0 -1.8,0 -3.2,-0.1 -1.5,0 -2.2,-1.7 -1.3,-2.8 1.2,-1.3 2.4,-2.7 3.4,-3.9 0.4,-0.4 1,-0.6 1.6,-0.5 1.1,0.2 2.6,0.5 3,0.5 4.3,-0.4 8.6,-0.8 13,-1.2 6.1,-0.5 12.4,-1.1 18.6,-1.7 3.9,-0.4 7.8,-1 11.5,-1.5 0,0 0,0 0,0 0.1,0 0.3,0 0.6,0 -0.3,1.2 -0.5,2.5 -0.3,3.9 0.3,2.7 0,5 -0.7,7 -4.6,0.5 -10.6,-0.4 -13.5,-0.2 -5.5,0.4 -10.9,1.1 -18.2,1.1 -4.7,-0.2 -9.4,-0.4 -14.5,-0.6 z"
         class="st1" /><path
         style="fill:#bd99c7"
         inkscape:connector-curvature="0"
         id="path29"
         d="m 289.1,231.2 c -4.8,-0.3 -9.5,-0.8 -14.5,-1.4 -0.6,-0.1 -3.8,-0.2 -6.5,-0.3 -1.5,-0.1 -2.1,-1.9 -1,-2.9 1.3,-1.2 2.7,-2.3 3.8,-3.4 0.3,-0.3 0.7,-0.5 1.2,-0.4 1.7,0.1 6,0.4 6.5,0.4 4.3,-0.1 8.7,-0.3 13,-0.4 6.1,-0.2 12.4,-0.3 18.6,-0.6 3.4,-0.1 11.9,-1.3 16.5,-1.8 -1.8,4.1 -5.7,6.7 -9.7,8.7 -1.6,0.8 -2.9,1.7 -4.1,2.7 -1.8,-0.3 -3.5,-0.6 -5,-0.6 -5.6,0.2 -11.5,0.4 -18.8,0 z"
         class="st1" /><path
         style="fill:#bd99c7"
         inkscape:connector-curvature="0"
         id="path31"
         d="m 257.8,234.6 c 1.6,-1.2 11,0.4 13.4,0.4 l 0.2,0 c 6.1,0.1 12.6,0.1 21.1,0.1 3.8,0 11.6,-0.4 15.4,-0.4 0.7,0 1.6,-0.1 2.5,-0.1 -1,1.4 -1.9,3.1 -2.5,4.9 -0.6,1.8 -1.4,3.4 -2.2,4.9 -11,-0.5 -34.3,-2.4 -48.8,-3.5 -2.2,-0.2 -3.1,-2.9 -1.4,-4.4 0.8,-0.7 1.7,-1.4 2.3,-1.9 z"
         class="st1" /><path
         style="fill:#bd99c7"
         inkscape:connector-curvature="0"
         id="path33"
         d="m 243.6,245.6 c 1.3,-0.9 2.5,-1.7 3.5,-2.3 1.7,-1.1 8,0.3 10.4,0.5 l 0.2,0 c 6.1,0.5 12.6,1.1 21,1.7 3.8,0.3 7.6,0.6 11.4,0.9 1.5,0.1 9.7,1.3 13,1.8 -2.8,3.4 -6.4,5.6 -11,6.7 -0.1,0 -0.2,0.1 -0.4,0.1 l -0.6,-0.1 c -11.1,-1.3 -32.2,-4.3 -47,-6.3 -1.3,-0.2 -1.8,-2.2 -0.5,-3 z"
         class="st1" /><path
         style="fill:#bd99c7"
         inkscape:connector-curvature="0"
         id="path35"
         d="m 233.5,252.7 c 0.9,-0.5 1.6,-1 2,-1.3 1.8,-1.5 7,0 9.2,0 1,0 2.1,0.1 3.4,0.4 9,1.8 27.4,5.4 37.6,7 -0.3,0.4 -0.6,0.8 -0.9,1.3 -1,1.8 -2.2,3.4 -3.6,4.8 -0.1,0 -0.2,0 -0.2,0 -5.1,-1.1 -20.8,-4.3 -25.8,-5.2 -2.6,-0.5 -5.2,-0.9 -7.8,-1.4 -2.9,-0.5 -8.8,-1.7 -13.4,-2.6 -1.5,-0.3 -1.8,-2.2 -0.5,-3 z"
         class="st1" /><path
         style="fill:#bd99c7"
         inkscape:connector-curvature="0"
         id="path37"
         d="m 243.5,267.5 c -2.6,-0.5 -5.2,-0.9 -7.8,-1.4 -2.9,-0.6 -10.4,-2 -15.6,-3.1 -1.4,-0.3 -1.6,-2.1 -0.3,-2.7 1.4,-0.7 2.8,-1.3 3.2,-1.6 2,-1.2 7.9,0.5 10.1,0.5 1,0 2.1,0.1 3.4,0.4 9.3,1.9 30.7,6.6 40.5,8.2 0.4,0.1 0.9,0.1 1.3,0.2 -2.3,2.1 -4.8,3.9 -7.5,5.6 -5.3,-1.2 -22.3,-5.3 -27.3,-6.1 z"
         class="st1" /><path
         style="fill:#bd99c7"
         inkscape:connector-curvature="0"
         id="path39"
         d="m 205.2,267.3 c 1.4,-0.6 2.7,-1.3 3.6,-1.8 2.1,-1.1 10.8,1.2 13,1.2 1,0 2.1,0.1 3.4,0.4 9.3,1.9 30.8,7.1 40.6,8.7 0.3,0.1 0.7,0.1 1,0.2 -1.5,0.9 -3,1.8 -4.6,2.7 -1.4,0.8 -2.7,1.8 -3.8,2.9 -5.5,-1.3 -21.2,-5.7 -26.1,-6.5 -4.6,-0.8 -7.1,-1.3 -7.8,-1.4 -3,-0.6 -12.8,-2.3 -19,-3.5 -1.3,-0.3 -1.6,-2.2 -0.3,-2.9 z"
         class="st1" /><path
         style="fill:#bd99c7"
         inkscape:connector-curvature="0"
         id="path41"
         d="m 240.3,280.9 16.1,3.2 c -0.3,0.4 -0.6,0.8 -0.8,1.3 -1,1.7 -2.3,3.2 -3.9,4.6 -0.1,0 -0.1,0 -0.2,0 -1.5,0 -6.8,-1.3 -7.1,-1.6 -1.7,-2.2 -2.9,-4.8 -4.1,-7.5 z"
         class="st1" /><path
         style="fill:#bd99c7"
         inkscape:connector-curvature="0"
         id="path43"
         d="m 330.4,148.1 c -3.8,1.4 -5.2,2.3 -9.7,3.7 1.7,-4.1 3.4,-5.6 5,-7.3 0.6,0.5 1.2,1 2,1.5 1,0.6 1.9,1.3 2.7,2.1 z"
         class="st1" /><path
         style="fill:#bd99c7"
         inkscape:connector-curvature="0"
         id="path45"
         d="m 313,157.2 c -4.3,7.2 -8.8,14.7 -13.5,21.8 -10.2,15.5 -24.4,35.3 -42.9,51.5 -27.8,24.2 -65,44 -102,52.9 -1.2,0.3 -2.5,0.4 -3.8,0.4 -1.5,0 -3.1,-0.3 -4.6,-0.8 -2.1,-1.1 -4,-2.7 -5.8,-4.9 4.3,-0.6 8.8,-1.2 13.1,-2.2 21,-4.7 46.1,-16.7 72,-31.8 22.1,-13 40.8,-31.2 55.7,-54.1 10.1,-15.7 20.6,-31.5 30.7,-46.8 l 3.7,-7.4 c 0.2,-0.3 1.2,-3.6 1.5,-3.8 0.7,0.3 1.7,1 2.7,1.8 0.9,1.4 1.7,3 2.4,4.8 0.3,0.7 0.6,1.6 1.1,2.4 -3.3,5 -7.4,11.3 -10.3,16.2 z"
         class="st1" /><path
         style="fill:#bd99c7"
         inkscape:connector-curvature="0"
         id="path47"
         d="m 287.6,172.4 c -10.4,15.4 -24.7,35.1 -43.4,51.1 -28,23.9 -61,40.4 -98.2,49 -1.2,0.3 -2.5,0.4 -3.8,0.3 -2.3,-0.1 -4.7,-0.7 -6.8,-1.7 -1.1,-1.6 -2.3,-3 -3.6,-4 4.4,-0.5 8.9,-1.1 13.3,-2.1 21,-4.5 42,-13.2 68,-28.2 22.2,-12.8 41.1,-30.8 56.1,-53.6 10.3,-15.6 20.9,-31.3 31.1,-46.5 l 7.9,-11.5 c 0,0 0.1,-0.1 0.1,-0.1 1.1,1 2.5,1.9 4.2,2.6 0.7,0.3 1.4,0.6 2,1 0.3,0.8 0.1,1.5 -0.4,2.3 -3.2,5 -9.6,14.7 -12.6,19.7 -4.6,7.2 -9.1,14.7 -13.9,21.7 z"
         class="st1" /><path
         style="fill:#bd99c7"
         inkscape:connector-curvature="0"
         id="path49"
         d="m 279.5,164.2 c -10.6,15.2 -25.3,34.7 -44.2,50.3 -28.4,23.4 -67.4,41.3 -104.7,49.3 -1.2,0.3 -2.5,0.4 -3.9,0.3 -0.6,0 -1.2,-0.1 -1.8,-0.2 -3.5,-1.3 -6.2,-3.2 -8.2,-5.8 4.2,-0.5 8.6,-0.9 12.9,-1.8 21.1,-4.2 47.8,-14.5 74.1,-29 22.4,-12.4 41.6,-30.1 57,-52.6 10.5,-15.4 21.4,-30.9 31.9,-46 l 7,-10 c 0.2,-0.2 0.4,-0.5 0.6,-0.7 2.1,0.9 4,2.4 5.6,4.4 0.3,0.8 0,1.5 -0.5,2.2 -3.3,5 -8.7,13.1 -11.8,18.1 -4.5,7.2 -9.2,14.5 -14,21.5 z"
         class="st1" /><path
         style="fill:#bd99c7"
         inkscape:connector-curvature="0"
         id="path51"
         d="m 118.4,253.5 c -0.3,0 -3.6,0 -4,0 -0.1,0 -0.2,0 -0.3,0 -0.1,-0.3 -0.3,-0.7 -0.4,-1 -1.3,-3.6 -4.2,-5.8 -6.4,-7.1 3.6,0 7.3,0 11,-0.5 29.1,-4.1 54,-12.1 76.2,-24.3 18.5,-10.2 33.5,-21.8 45.7,-35.5 17.3,-19.5 32.4,-41.3 46.1,-66.7 0.6,-1.1 1.5,-2 2.3,-2.7 1.6,0.6 3.3,1 4.9,1 0.5,0 0.9,0 1.4,0.1 0.1,0.1 0.1,0.1 0.2,0.2 -19.7,36.7 -42.4,65.7 -66.3,88.2 -15.9,14.9 -31.9,25.2 -49,31.4 -19.4,7 -38.4,14.2 -61.4,16.9 z"
         class="st1" /><path
         style="fill:#bd99c7"
         inkscape:connector-curvature="0"
         id="path53"
         d="m 284.8,113.4 c -20.6,35.4 -43.6,65.6 -67.9,87 -16.3,14.4 -32.7,24.2 -49.9,29.9 -19.5,6.4 -40.3,10.5 -63.4,12.5 -0.3,0 -0.6,0 -0.9,0 -3,-1.8 -5.4,-3.8 -7.3,-5.9 3.2,0.1 6.5,0.2 9.8,-0.2 29.2,-3.3 54.4,-10.4 76.9,-21.9 18.8,-9.6 34.1,-20.8 46.7,-34.1 17.9,-19 35.8,-44 50.2,-68.9 0.5,-0.9 0.9,-1.5 1.2,-1.9 1.3,0.7 2.6,1.6 3.7,2.8 0.4,0.2 0.7,0.5 0.9,0.7 z"
         class="st1" /><path
         style="fill:#bd99c7"
         inkscape:connector-curvature="0"
         id="path55"
         d="m 195.2,204 c -13.2,7.9 -28.1,14.1 -45.6,19 -20,5.5 -36.3,8.9 -54.1,8.4 -0.6,0 -2.9,-0.8 -3.8,-1 -0.3,-0.7 -0.5,-1.5 -0.7,-2.3 -0.8,-3.3 -3,-5.5 -4.6,-6.9 -0.2,-0.2 -0.4,-0.4 -0.7,-0.6 3.3,0.3 7,0.7 9.8,0.7 29.3,0.2 58.4,-6.5 83.7,-18.8 18,-8.7 32.7,-18 46.5,-33.2 16,-17.6 28.4,-37.6 38.4,-56.5 0.3,-0.6 0.8,-1.2 1.4,-1.7 1.4,-0.2 2.8,-0.5 4.1,-1.1 1.9,-0.9 3.8,-1.3 5.7,-1.3 0,0 0.1,0 0.1,0 0.1,0.1 0.3,0.2 0.4,0.3 -1.6,3 -3.3,6 -4.9,9 -4.3,8 -10.4,16.4 -17.4,25.8 -19.4,26.4 -33.7,45.4 -58.3,60.2 z"
         class="st1" /><path
         style="fill:#bd99c7"
         inkscape:connector-curvature="0"
         id="path57"
         d="m 214.4,173.3 c -1.3,2.6 -5,5.7 -4.7,4.5 4.6,-17.8 12.1,-31.2 26,-56.7 l 1.4,-2.6 c 1.9,-0.6 3.7,-1.7 5.4,-3.2 1.1,-1 2.3,-1.8 3.4,-2.5 0.1,0 0.3,0 0.4,0 -2.6,4.8 -5,9.7 -7.5,14.5 -8.8,17.5 -17.6,31.5 -24.4,46 z"
         class="st1" /><path
         style="fill:#bd99c7"
         inkscape:connector-curvature="0"
         id="path59"
         d="m 260.6,110.7 c 0.1,0 0.2,0.1 0.4,0.1 -2.8,4.5 -6.4,10.2 -8.4,13.7 -9.7,16.6 -21.9,31.7 -34.4,45.4 0.5,-1.1 1.1,-2.2 1.7,-3.2 9.2,-16.3 18.8,-32.7 28,-48.5 l 4.4,-6.8 c 0.3,-0.5 0.5,-0.9 0.8,-1.2 0.7,-0.1 1.5,-0.2 2.2,-0.2 1.7,-0.1 3.5,0.2 5.3,0.7 z"
         class="st1" /><path
         style="fill:#bd99c7"
         inkscape:connector-curvature="0"
         id="path61"
         d="m 220.3,132.7 c 3.6,-5.7 7.2,-10 11.1,-13.3 0.9,-0.1 1.7,-0.2 2.7,-0.3 -13.1,20 -22.4,38.4 -26.1,59.6 0,0 0,0.1 -0.1,0.1 -1.9,2.7 -5,5.2 -7.7,6.6 3.8,-18.2 10.5,-37.6 20.1,-52.7 z"
         class="st1" /><path
         style="fill:#bd99c7"
         inkscape:connector-curvature="0"
         id="path63"
         d="m 209.5,137.5 c 0.2,-0.4 0.4,-0.8 0.6,-1.1 3.8,-7 8.1,-11.7 13.4,-14.5 -13.2,21.4 -22,43.1 -25.7,65.5 0,0 -0.8,0.8 -3.5,2.4 -2.5,1.4 -2.9,2.1 -5.5,3.6 2.3,-11.6 5.9,-24.2 10.6,-35.9 l 10.1,-20 z"
         class="st1" /><path
         style="fill:#bd99c7"
         inkscape:connector-curvature="0"
         id="path65"
         d="m 174.6,183.2 c 2.9,-13.1 9.2,-34 16.2,-50.2 0.1,-0.2 0.2,-0.6 0.4,-1 0.9,1.1 1.5,2.6 2,4.6 l 2.8,12.1 c -3.9,10.3 -5.7,20.5 -8.9,31.6 -0.6,2.2 -2.5,7.4 -2.9,9.8 -2.4,-1.2 -7.3,-5.3 -9.4,-6.6 -0.2,-0.3 -0.2,-0.2 -0.2,-0.3 z"
         class="st1" /><path
         style="fill:#bd99c7"
         inkscape:connector-curvature="0"
         id="path67"
         d="m 188.2,129.9 c -0.1,0.3 -0.3,0.5 -0.4,0.7 -2.3,4.9 -5.4,11.8 -6.6,15.6 -2.6,8.5 -4.9,16.9 -7.4,25.8 -0.6,2.1 -1.9,6.9 -2.6,9.1 -1.8,-1.4 -5.2,-3.5 -6.9,-5 -0.1,-0.1 -0.1,-0.3 -0.1,-0.5 l 1,-3.6 c 3.6,-12.8 9.7,-28 13.7,-40.9 0.3,-0.9 1,-2.4 1.6,-3.6 1.1,0.6 2.4,1.2 4,1.4 1.5,0.2 2.7,0.5 3.7,1 z"
         class="st1" /><path
         style="fill:#bd99c7"
         inkscape:connector-curvature="0"
         id="path69"
         d="m 178,126.9 c -2.6,4.8 -4.4,8.8 -5.7,12.5 -3,8.4 -5.7,16.6 -8.7,25.4 -0.7,2.1 -2.1,5.9 -2.8,8 -1.7,-1.5 -3.4,-3 -5,-4.6 0,-0.1 -0.1,-0.3 -0.1,-0.5 l 1.8,-5.2 c 4.2,-12.6 8.6,-25.7 13.2,-38.4 0.3,-0.7 0.6,-1.7 1,-2.6 2,1.4 3.9,2.7 5.9,4 0.2,0.1 0.3,0.2 0.5,0.4 0.1,0 0.1,0.1 0.2,0.1 -0.1,0.4 -0.2,0.7 -0.3,0.9 z"
         class="st1" /><path
         style="fill:#bd99c7"
         inkscape:connector-curvature="0"
         id="path71"
         d="m 169.5,120.3 -16.5,45 c 0,0 -0.1,0.2 -0.3,0.6 l -4.8,-4.7 c 0.1,-0.2 0.3,-0.8 0.4,-1 2,-5.1 7.2,-19.1 9,-24.2 1.7,-4.7 3.2,-11.2 5,-15.9 0.2,-0.4 1.1,-3.4 1.5,-3.5 l 0.2,-0.3 c 0.7,0.6 1.4,0.9 2,1.2 l 0.1,0.1 0.1,0.1 2.9,2 c 0.1,0.2 0.2,0.4 0.4,0.6 z"
         class="st1" /><path
         style="fill:#bd99c7"
         inkscape:connector-curvature="0"
         id="path73"
         d="M 161.4,113.6 146,158 l -0.3,0.8 c -1.3,-1.4 -2.6,-2.8 -4,-4.3 -0.1,-0.4 -0.1,-0.9 -0.1,-1.4 0,-2.3 0.8,-5.3 2.5,-9 2,-4.3 3.3,-8.9 4.8,-13.3 1.4,-4.1 5.7,-16.2 7.3,-20.3 0,-0.1 0.1,-0.2 0.3,-0.4 1.8,0.6 3.4,1.8 4.9,3.5 z"
         class="st1" /><path
         style="fill:#bd99c7"
         inkscape:connector-curvature="0"
         id="path75"
         d="m 153.1,109.5 c 0.3,0 0.6,0 0.8,0 l -15.2,39.9 -0.4,1 c -1.1,-1.2 -2.2,-2.5 -3.3,-3.7 0,-0.4 0.1,-0.9 0.1,-1.4 0.3,-2.5 1.2,-5.7 2.6,-9.6 1.3,-3.7 2.7,-7.4 3.9,-11 1.1,-3.4 2.3,-6.9 3.6,-10.3 0.1,-0.1 1.1,-2.3 2,-4.1 0.9,-0.1 1.8,-0.2 2.7,-0.5 1.2,-0.2 2.2,-0.3 3.2,-0.3 z"
         class="st1" /><path
         style="fill:#bd99c7"
         inkscape:connector-curvature="0"
         id="path77"
         d="m 133.5,138.3 c 0,0 -0.8,2.2 -1.5,4.1 -0.1,0.4 -0.3,0.8 -0.4,1.1 -1.4,-1.6 -2.8,-3.2 -4.2,-4.8 0,-0.5 0.1,-0.9 0.1,-1.4 0.2,-1.4 0.6,-2.9 1.2,-4.3 1.5,-3.4 2.6,-6.9 3.8,-10.2 1.1,-3.1 3.3,-10.3 4.5,-13.4 0,-0.1 0.1,-0.2 0.2,-0.3 2.3,0.9 4.6,1.3 7.1,1.4 l -10.8,27.8 z"
         class="st1" /><path
         style="fill:#bd99c7"
         inkscape:connector-curvature="0"
         id="path79"
         d="m 125.7,132 c 0,0 -0.5,1.3 -1,2.7 -0.1,0.3 -0.2,0.7 -0.4,1 -1.2,-1.5 -2.4,-2.9 -3.5,-4.2 0,-0.1 0.1,-0.3 0.1,-0.4 0.1,-0.1 0.1,-0.3 0.2,-0.4 1.2,-2.7 2.7,-7.8 3.6,-10.2 0.9,-2.3 1.5,-4.7 2.6,-7 0,-0.1 0.5,-1.2 1.1,-2.5 1.5,-0.5 3.1,-1.4 4.6,-2.7 0.1,-0.1 0.3,-0.1 0.4,-0.1 l 1.1,0 -8.8,23.8 z"
         class="st1" /><path
         style="fill:#bd99c7"
         inkscape:connector-curvature="0"
         id="path81"
         d="m 122.8,112 c 0.5,0 1.4,0 2.4,-0.1 l -6.4,15.3 -0.2,0.6 c -0.2,-0.2 -0.3,-0.3 -0.4,-0.4 -0.6,-0.6 -1,-1.1 -1.1,-1.5 -0.1,-0.2 -0.7,-1.6 -0.7,-1.9 0,-0.2 3.5,-8.3 4.9,-11.9 0.5,-0.1 1,-0.1 1.5,-0.1 z"
         class="st1" /><path
         style="fill:#bd99c7"
         inkscape:connector-curvature="0"
         id="path83"
         d="m 119.1,111.9 -3.7,9.1 -0.1,0.3 c -0.2,-0.1 -0.4,-0.1 -0.5,-0.2 -0.7,-0.2 -1.1,-0.4 -1.4,-0.6 -0.1,-0.1 -1,-0.7 -1,-0.9 0,-0.1 2.2,-5.4 2.9,-7.4 1,-0.2 2.2,-0.3 3.6,-0.3 0.1,0 0.2,0 0.2,0 z"
         class="st1" /><path
         style="fill:#bd99c7"
         inkscape:connector-curvature="0"
         id="path85"
         d="m 111,118.1 -0.1,0.2 c -0.1,0 -0.3,-0.1 -0.4,-0.1 -0.5,-0.2 -0.8,-0.3 -1,-0.4 -0.1,-0.1 -0.7,-0.5 -0.7,-0.6 0,0 0.1,-0.3 0.3,-0.6 l 0.2,-0.4 c 0.9,-1.5 2.1,-2.7 4.1,-3.4 l -2.4,5.3 z"
         class="st1" /><path
         style="fill:#bd99c7"
         inkscape:connector-curvature="0"
         id="path87"
         d="m 171,194 c -1,-0.9 -2.1,-1.7 -3.2,-2.5 -0.8,-0.6 -1.5,-1.1 -2.1,-1.6 -20.9,-17.5 -41.1,-38.2 -65.4,-67.1 -0.6,-0.7 -1.5,-1.8 -1.9,-2.8 0.2,0 0.4,0 0.6,0 0.6,0 1.2,0 1.9,0.1 l 5.5,0.8 0.8,-1.3 c 2.8,3.4 4.4,5.4 7.4,9.2 6,7.4 12.2,15.1 18.8,22.3 l 0.5,0.5 c 14.1,15.4 29.4,31.4 50.1,40.9 1.2,2.5 -1.6,3.4 -3.1,4.2 -1.4,0.8 -3.3,1.2 -4.4,1.2 -1.3,0.1 -4.1,-2.6 -5.5,-3.9 z"
         class="st1" /><path
         style="fill:#bd99c7"
         inkscape:connector-curvature="0"
         id="path89"
         d="m 173.8,199.1 c -1.5,0.8 -3,1.5 -4.4,2.4 -1.3,0.8 -2.5,1.1 -3.5,1.1 -1.3,0 -2.5,-0.6 -3.8,-1.8 -1,-0.9 -2,-1.7 -3,-2.5 -0.7,-0.6 -1.4,-1.1 -2.1,-1.6 -20.2,-17.5 -39.6,-38.2 -63,-67.2 -0.5,-0.7 -1.6,-2 -2.2,-3.6 1.4,-3.6 3.2,-5.1 5.1,-5.6 3.4,4.3 7.8,11.2 10.9,15.2 5.8,7.4 11.7,15.1 18.1,22.3 l 0.5,0.5 c 13.5,15.4 27.5,31.3 47.4,40.8 z"
         class="st1" /><path
         style="fill:#bd99c7"
         inkscape:connector-curvature="0"
         id="path91"
         d="m 110.7,154.5 c 11.6,14.8 27.4,33.7 46.9,48.9 1.1,0.9 2.2,1.7 3.4,2.5 -1.1,0.3 -2.2,0.7 -3.3,1.2 -1.5,0.7 -2.8,1 -4.1,1 -2.5,0 -5,-1.3 -8.1,-4.3 -19.8,-19.1 -38.8,-40.1 -56.4,-62.2 -1.7,-2.1 -3.2,-4.8 -3.5,-7.3 0.5,-0.3 1.1,-0.6 1.6,-1 l 2.7,-1.7 0.5,-1.7 c 0,0.1 0.1,0.1 0.1,0.1 1.6,1.9 3.1,3.8 4.7,5.7 5.3,6.1 10.6,12.4 15.5,18.8 z"
         class="st1" /><path
         style="fill:#bd99c7"
         inkscape:connector-curvature="0"
         id="path93"
         d="m 141.3,211.1 c -2.3,0 -4.6,-1.2 -7.5,-3.9 -18.3,-17.4 -38.3,-39.5 -54.5,-59.7 -0.4,-0.5 -0.8,-1.1 -1.1,-1.7 0.2,-0.7 0.3,-1.4 0.4,-1.9 l 0.1,-0.6 c 0.7,-3.2 1.6,-5.1 2.2,-6.2 1.7,2.1 5.1,6.6 6.4,8.1 4.7,5.6 9.6,11.4 14.2,17.2 10.7,13.5 25.2,30.7 43.3,44.5 1,0.8 2.1,1.5 3.2,2.2 -1,0.3 -2,0.6 -3,1.1 -1.3,0.6 -2.5,0.9 -3.7,0.9 z"
         class="st1" /><path
         style="fill:#bd99c7"
         inkscape:connector-curvature="0"
         id="path95"
         d="m 135.4,213.1 c -3,0.4 -5.7,0.7 -8.4,1.2 -0.6,0.1 -1.1,0.1 -1.6,0.2 -2.4,0.1 -4.1,-0.8 -5.8,-2.9 -1.3,-1.6 -2.8,-3 -4.2,-4.4 -1.2,-1.2 -2.3,-2.3 -3.4,-3.5 l -6.4,-7.4 c -9.3,-10.8 -18.9,-21.9 -28,-33.1 -2.2,-2.7 -4.7,-5.5 -5.3,-8.2 1.6,-1.2 2.8,-2.6 3.7,-4 3.7,2.1 8.9,10.6 12.8,14.9 14.5,15.8 29,33 46.6,47.2 z"
         class="st1" /><path
         style="fill:#bd99c7"
         inkscape:connector-curvature="0"
         id="path97"
         d="m 84.1,175.2 c 10.7,13.2 20.1,27.7 33.2,39.7 -2.3,0.2 -4.3,0.5 -6.5,0.8 -0.4,0.1 -0.8,0.1 -1.2,0.1 -1.8,0 -3.1,-0.7 -4.4,-2.5 -1,-1.3 -2.1,-2.6 -3.1,-3.7 -0.9,-1 -1.7,-1.9 -2.5,-2.9 l -4.7,-6.2 c -6.9,-9 -14,-18.3 -20.7,-27.7 -1,-1.4 -2.6,-3.1 -3.7,-4.9 -0.3,-2.7 -0.4,-5.2 -0.1,-7.5 4.9,2.7 10.1,10.4 13.7,14.8 z"
         class="st1" /><path
         style="fill:#bd99c7"
         inkscape:connector-curvature="0"
         id="path99"
         d="m 79.4,185.3 c 7.7,10.2 14.6,21.8 24.3,31.1 -1.8,0.1 -3.4,0.2 -5,0.3 -0.3,0 -0.6,0 -0.9,0 -1.4,-0.1 -2.4,-0.7 -3.3,-2 -0.7,-1 -1.5,-2 -2.3,-2.9 -0.7,-0.8 -1.3,-1.5 -1.8,-2.2 L 87,204.9 c -4.9,-6.9 -10.1,-14 -14.9,-21.2 -0.2,-0.2 -0.3,-0.5 -0.5,-0.8 0.1,-0.6 0.2,-1.2 0.3,-1.8 0.4,-2.1 0.3,-4.4 -0.3,-6.9 2.9,2.4 5.9,8.6 7.8,11.1 z"
         class="st1" /><path
         style="fill:#bd99c7"
         inkscape:connector-curvature="0"
         id="path101"
         d="m 82.7,215 c -0.1,-0.1 -0.3,-0.2 -0.5,-0.5 -3.8,-4.3 -8.6,-14.1 -11.1,-22 C 71,191.6 71,190.7 71,189.7 l 17,25.6 c -1.8,0 -3.5,-0.1 -5.3,-0.3 z"
         class="st1" /><path
         style="fill:#bd99c7"
         inkscape:connector-curvature="0"
         id="path103"
         d="m 229.6,303.2 c -5,-6.7 -9.6,-16.8 -11.3,-25.5 1.6,0.2 3.1,0.3 4.6,0.3 2.5,0.1 3.5,3.1 3.9,4.5 0.9,2.6 4.8,10.6 7,15 l 1.1,2.2 c -1.7,1 -3.5,2.2 -5.3,3.5 z"
         class="st1" /><path
         style="fill:#bd99c7"
         inkscape:connector-curvature="0"
         id="path105"
         d="m 211.5,276.1 c 3.1,0.1 3.3,0.8 3.4,2.7 0.2,2.5 1.2,4.8 2.2,6.9 2.7,5.5 5.3,10.9 8.2,16.6 l 1.5,3 c -1,0.9 -2.1,1.8 -3.1,2.9 -0.6,0.6 -1.3,1.2 -2,1.8 l -1,0.7 c -6.6,-8.7 -12.8,-23.3 -15.1,-35.2 2.1,0.4 4,0.6 5.9,0.6 z"
         class="st1" /><path
         style="fill:#bd99c7"
         inkscape:connector-curvature="0"
         id="path107"
         d="m 185.1,302.5 c 3.8,10.6 7.2,16.7 9.5,20.1 -2.4,-1.9 -4.9,-3.8 -7.4,-5.7 -1.1,-0.8 -2.4,-1.4 -3.8,-1.8 -5.2,-9.9 -14.5,-33 -14.5,-33 l 8.7,-2.3 c 0.1,0 0.5,3.2 7.5,22.7 z"
         class="st1" /><path
         style="fill:#bd99c7"
         inkscape:connector-curvature="0"
         id="path109"
         d="m 177.7,310.8 -10,-4.5 -5.3,-9.7 c -1.3,-2.4 -2.5,-4.7 -3.9,-7 l -2.1,-4.2 9.7,-2.2 11.6,27.6 z"
         class="st1" /><path
         style="fill:#bd99c7"
         inkscape:connector-curvature="0"
         id="path111"
         d="m 32.4,311.1 c -0.3,-1.2 -0.8,-2.4 -0.7,-3.5 1.4,-3.4 4.4,-5.8 9.3,-8.9 8.7,-5.5 17.6,-8.2 27.3,-8.2 8.8,0 18.2,2.2 28.6,6.8 6.7,2.9 12.7,6.1 18.1,9.4 7.4,4.6 15.6,6.8 25.1,6.8 2.1,0 4.2,-0.1 6.5,-0.3 2.7,-0.3 5.3,-0.7 7.9,-1.1 1.1,-0.2 2.1,-0.4 3.2,-0.5 l 9.8,-1.5 c 3.1,0.6 5.9,2 8.8,3.2 0.4,0.2 0.6,0.8 1.1,1.8 -0.2,0 -0.4,0.1 -0.6,0.1 -12.6,3 -24.4,4.5 -36,4.5 -0.8,0 -1.6,0 -2.4,0 -11.6,-0.2 -20.6,-2.7 -28.1,-7.7 -3.9,-2.6 -8.1,-5.1 -12.3,-7.2 -9.4,-4.8 -18.8,-7.3 -27.9,-7.3 -8.1,0 -16.1,1.9 -23.8,5.7 -3.8,1.9 -7.3,4.5 -9.8,7.5 -0.2,0.2 -0.3,0.4 -0.5,0.5 -0.8,0.3 -1.9,0.4 -2.8,0.5 -0.4,-0.3 -0.6,-0.4 -0.8,-0.6 z"
         class="st1" /></g><g
       transform="translate(0,-305.29999)"
       id="Calque_2"><g
         id="g114"><defs
           id="defs116"><path
             inkscape:connector-curvature="0"
             d="m 273,89 c 0,0 -26,70 -84.4,104.4 -58.4,34.4 -134.7,22.7 -134.7,22.7 l 0,-204.1 222,0 -2.9,77 z"
             id="SVGID_1_" /></defs><clipPath
           id="SVGID_2_"><use
             height="100%"
             width="100%"
             y="0"
             x="0"
             id="use120"
             style="overflow:visible"
             xlink:href="#SVGID_1_" /></clipPath><path
           style="fill:#575756"
           inkscape:connector-curvature="0"
           clip-path="url(#SVGID_2_)"
           id="path122"
           d="m 249.3,340.7 c 1.5,0 2.9,-0.3 4.2,-0.9 2,-0.9 3.8,-2.6 4.9,-4.7 1.3,-2.4 1.4,-5 0.5,-7.1 L 126.2,43.7 c -0.9,-2 -2.6,-5.8 -6.5,-5.8 -0.9,0 -1.8,0.2 -2.7,0.6 -1.4,0.6 -2.4,1.5 -3,2.6 -2.7,2.8 -4.6,8.4 -5,14.9 -0.5,8.4 1.7,17.5 7.6,17.9 0.1,0 0.2,0 0.3,0 2.6,0 4.9,-1.9 6.6,-5.3 L 241,336 c 1.3,2.9 4.6,4.7 8.3,4.7 z"
           class="st2" /><path
           style="fill:#b2b2b2"
           inkscape:connector-curvature="0"
           clip-path="url(#SVGID_2_)"
           id="path124"
           d="m 111.8,56.2 c 0.4,-6.2 2.2,-11.5 4.5,-13.4 0.2,-0.7 0.8,-1.3 1.8,-1.7 2.9,-1.3 4.2,0.9 5.5,3.8 l 132.6,284.4 c 1.3,2.9 -1,6.8 -3.9,8.1 -2.9,1.3 -7.4,0.5 -8.7,-2.4 L 122.9,60.4 c -1,6.3 -3.5,10.9 -6.2,10.7 -3.1,-0.2 -5.3,-6.9 -4.9,-14.9 z"
           class="st3" /></g><g
         id="g126"><defs
           id="defs128"><path
             inkscape:connector-curvature="0"
             d="m 330.4,126.3 c 0,0 -35.4,124.2 -194.5,167 l 0,71.7 212.9,0 0,-238.7 -18.4,0 z"
             id="SVGID_3_" /></defs><clipPath
           id="SVGID_4_"><use
             height="100%"
             width="100%"
             y="0"
             x="0"
             id="use132"
             style="overflow:visible"
             xlink:href="#SVGID_3_" /></clipPath><path
           style="fill:#575756"
           inkscape:connector-curvature="0"
           clip-path="url(#SVGID_4_)"
           id="path134"
           d="m 249.3,340.7 c 1.5,0 2.9,-0.3 4.2,-0.9 2,-0.9 3.8,-2.6 4.9,-4.7 1.3,-2.4 1.4,-5 0.5,-7.1 L 126.2,43.7 c -0.9,-2 -2.6,-5.8 -6.5,-5.8 -0.9,0 -1.8,0.2 -2.7,0.6 -1.4,0.6 -2.4,1.5 -3,2.6 -2.7,2.8 -4.6,8.4 -5,14.9 -0.5,8.4 1.7,17.5 7.6,17.9 0.1,0 0.2,0 0.3,0 2.6,0 4.9,-1.9 6.6,-5.3 L 241,336 c 1.3,2.9 4.6,4.7 8.3,4.7 z"
           class="st4" /><path
           style="fill:#b2b2b2"
           inkscape:connector-curvature="0"
           clip-path="url(#SVGID_4_)"
           id="path136"
           d="m 111.8,56.2 c 0.4,-6.2 2.2,-11.5 4.5,-13.4 0.2,-0.7 0.8,-1.3 1.8,-1.7 2.9,-1.3 4.2,0.9 5.5,3.8 l 132.6,284.4 c 1.3,2.9 -1,6.8 -3.9,8.1 -2.9,1.3 -7.4,0.5 -8.7,-2.4 L 122.9,60.4 c -1,6.3 -3.5,10.9 -6.2,10.7 -3.1,-0.2 -5.3,-6.9 -4.9,-14.9 z"
           class="st5" /></g><g
         id="g138"><path
           style="fill:#575756"
           inkscape:connector-curvature="0"
           id="path140"
           d="m 123.4,51 c 0.8,1.9 1.3,3.9 1.5,6 0.2,2.1 0.2,4.2 -0.2,6.2 -0.4,2.1 -1.2,4.1 -2.6,5.8 -0.7,0.8 -1.5,1.6 -2.4,2.1 -0.9,0.5 -1.9,0.9 -2.9,1.1 0.9,-0.6 1.7,-1.2 2.3,-1.9 0.7,-0.7 1.2,-1.5 1.7,-2.3 1,-1.6 1.5,-3.4 1.9,-5.3 0.7,-3.7 0.7,-7.6 0.7,-11.7 z"
           class="st6" /></g><g
         id="g142"><path
           style="fill:#575756"
           inkscape:connector-curvature="0"
           id="path144"
           d="m 210.3,86 -14.9,7.8 -1.9,-3.7 c 2.8,-1.7 3.5,-3.9 2,-6.6 l -5.8,-11.1 c -1.3,-2.6 -1.6,-5.1 -0.8,-7.5 0.8,-2.4 2.5,-4.3 5,-5.7 2.6,-1.4 5.1,-1.8 7.4,-1.2 2.4,0.6 4.3,2.3 5.7,4.9 0.6,1.1 0.9,2.5 0.9,4.1 0,1.6 -0.3,2.9 -0.9,4 l -4.3,-1 c 0.9,-1.6 1,-3.2 0.1,-4.9 -0.7,-1.3 -1.7,-2.1 -2.9,-2.5 -1.3,-0.4 -2.6,-0.2 -3.9,0.5 -1.2,0.6 -2,1.7 -2.4,3.1 -0.4,1.4 -0.2,2.7 0.4,4 l 5.9,11.4 c 0.7,1.3 0.6,3.2 -0.4,5.5 l 8.5,-4.4 c 2.8,-1.4 4.7,-3.4 5.8,-5.8 l 3.6,1.6 c -0.5,1.8 -1.4,3.3 -2.7,4.6 -0.9,0.9 -2.4,1.9 -4.4,2.9 z"
           class="st6" /><path
           style="fill:#575756"
           inkscape:connector-curvature="0"
           id="path146"
           d="m 224.9,76.5 c 1.3,0.1 2.4,0 3.2,-0.2 1.7,-0.5 3,-1.3 3.9,-2.4 l 1.1,3.8 c -1,0.9 -2.4,1.5 -4,2 -2.6,0.8 -5,0.6 -7.2,-0.3 -2.2,-1 -3.7,-2.8 -4.5,-5.5 -0.6,-2.2 -0.4,-4.3 0.7,-6.4 1.1,-2.1 2.8,-3.4 5,-4 3,-0.9 5.8,-0.4 8.3,1.5 l -6.5,11.5 z m -1.1,-9.7 c -1.3,0.4 -2.2,1.1 -2.7,2.3 -0.5,1.2 -0.5,2.4 -0.2,3.7 0.2,0.6 0.6,1.4 1.4,2.4 l 4.3,-8 c -0.8,-0.6 -1.8,-0.7 -2.8,-0.4 z"
           class="st6" /><path
           style="fill:#575756"
           inkscape:connector-curvature="0"
           id="path148"
           d="m 264.6,63 c -1.9,-0.1 -3.6,-0.7 -5.2,-1.8 l 2,-3.9 c 1,0.8 2,1.3 3.2,1.3 1.3,0.1 2.5,-0.4 3.5,-1.2 1,-0.9 1.6,-2 1.6,-3.3 0.1,-1.6 -0.6,-2.8 -1.9,-3.8 -1.2,-0.8 -2.6,-1.3 -4.2,-1.3 -3.2,-0.1 -5.9,1 -8.1,3.5 -2.1,2.3 -3.2,5.1 -3.3,8.3 -0.1,3.5 0.8,6.2 2.9,8.2 2,1.9 4.7,2.9 8.2,3 1.5,0.1 3.1,-0.2 4.8,-0.8 1.7,-0.6 3,-1.4 4.1,-2.4 l -0.2,5.1 c -2.5,1.7 -5.4,2.5 -8.8,2.4 -4.9,-0.2 -8.8,-1.7 -11.6,-4.5 -2.9,-2.9 -4.3,-6.8 -4.1,-11.6 0.2,-4.6 1.8,-8.4 4.9,-11.4 3.1,-3 6.9,-4.4 11.5,-4.3 4.9,0.2 8.2,2.2 9.9,5.9 0.6,1.3 0.9,2.6 0.8,3.8 -0.1,2.6 -1.1,4.7 -3,6.4 -2.2,1.7 -4.4,2.5 -7,2.4 z"
           class="st6" /><path
           style="fill:#575756"
           inkscape:connector-curvature="0"
           id="path150"
           d="m 288,69.7 c -0.9,-0.2 -1.7,-0.9 -2.2,-2 -1.1,0.3 -2,1 -2.7,2 -0.2,0.3 -0.3,0.5 -0.4,0.8 l -2.1,8.3 -4.3,-1.1 4.1,-16 4.3,1.1 -0.9,3.5 c 2.2,-2.2 4.2,-3.1 5.8,-2.6 0.9,0.2 1.5,0.7 2,1.5 0.5,0.7 0.6,1.5 0.4,2.4 -0.2,0.9 -0.7,1.5 -1.5,2 -0.8,0.3 -1.6,0.4 -2.5,0.1 z"
           class="st6" /><path
           style="fill:#575756"
           inkscape:connector-curvature="0"
           id="path152"
           d="m 296.9,84.6 c -2.2,-0.9 -3.8,-2.5 -4.7,-4.7 -0.9,-2.2 -0.9,-4.4 0.1,-6.6 1,-2.2 2.5,-3.8 4.7,-4.7 2.2,-0.9 4.4,-0.9 6.6,0.1 2.2,0.9 3.8,2.5 4.7,4.7 0.9,2.2 0.9,4.4 -0.1,6.7 -0.9,2.2 -2.5,3.8 -4.7,4.7 -2.1,0.7 -4.3,0.7 -6.6,-0.2 z m 8.5,-6.9 c -1,0.1 -1.8,0.1 -2.2,-0.1 -0.8,-0.3 -1.3,-0.9 -1.7,-1.7 -0.4,-0.8 -0.4,-1.6 0,-2.4 0.2,-0.5 0.6,-1 1.2,-1.5 -1.7,-0.6 -3.2,-0.6 -4.4,0 -1.2,0.6 -2,1.5 -2.6,2.7 -0.6,1.3 -0.6,2.6 -0.1,3.9 0.5,1.3 1.4,2.2 2.7,2.7 1.3,0.6 2.6,0.6 3.9,0 1.3,-0.5 2.2,-1.4 2.8,-2.7 l 0.4,-0.9 z"
           class="st6" /><path
           style="fill:#575756"
           inkscape:connector-curvature="0"
           id="path154"
           d="m 321.5,87 c -0.6,-0.4 -1,-1 -1.3,-1.8 -0.2,-0.8 -0.2,-1.5 0.2,-2 0.2,-0.3 0.5,-0.5 1,-0.8 -2.7,-1.7 -4.8,-1.2 -6.5,1.4 -0.8,1.3 -1,2.6 -0.6,3.9 0.4,1.3 1.2,2.4 2.5,3.2 1.6,1 3,1.5 4.4,1.5 l -2.2,3.5 c -1.4,-0.2 -2.8,-0.8 -4.3,-1.8 -2.3,-1.5 -3.8,-3.3 -4.4,-5.6 -0.6,-2.3 -0.2,-4.6 1.2,-6.8 1.3,-2 3,-3.2 5.2,-3.8 2.2,-0.6 4.3,-0.2 6.3,1 1.5,0.9 2.5,2 3,3.1 0.7,1.4 0.6,2.7 -0.3,4.1 -0.5,0.8 -1.1,1.3 -1.9,1.5 -0.8,0.1 -1.5,-0.1 -2.3,-0.6 z"
           class="st6" /><path
           style="fill:#575756"
           inkscape:connector-curvature="0"
           id="path156"
           d="m 332.7,109 c -1,-0.9 -1.5,-2 -1.4,-3.3 0,-1.3 0.5,-2.5 1.4,-3.5 l 3.8,-4.1 c 1.3,-1.5 1.4,-2.8 0.1,-4 -1.1,-1 -2.5,-1.2 -4.2,-0.3 -0.5,0.2 -0.8,0.4 -0.9,0.5 l -6.5,7.1 -3.1,-2.9 20.9,-22.7 3.1,2.9 -11.7,12.7 c 2.3,-0.4 4.2,0 5.5,1.3 1.2,1.1 1.8,2.4 1.9,4 0.1,1.6 -0.5,2.9 -1.6,4.1 l -3.7,4 c -0.9,1 -0.8,2 0.3,3 0.4,0.4 0.8,0.6 1.3,0.7 l -2.1,2.3 c -1,-0.3 -2,-0.8 -3.1,-1.8 z"
           class="st6" /><path
           style="fill:#575756"
           inkscape:connector-curvature="0"
           id="path158"
           d="m 342.5,114.5 c 0.4,1.2 0.9,2.2 1.4,2.9 1.1,1.4 2.3,2.3 3.7,2.8 l -3.1,2.4 c -1.2,-0.7 -2.3,-1.7 -3.3,-3 -1.7,-2.2 -2.4,-4.5 -2.3,-6.8 0.1,-2.5 1.3,-4.5 3.4,-6.2 1.8,-1.4 3.9,-1.9 6.2,-1.6 2.3,0.3 4.2,1.3 5.6,3.2 1.9,2.5 2.4,5.3 1.6,8.3 l -13.2,-2 z m 8.7,-4.5 c -0.8,-1.1 -1.9,-1.6 -3.1,-1.7 -1.2,0 -2.4,0.4 -3.5,1.2 -0.5,0.4 -1.1,1.1 -1.7,2.2 l 9,1 c 0.2,-0.9 -0.1,-1.8 -0.7,-2.7 z"
           class="st6" /><path
           style="fill:#575756"
           inkscape:connector-curvature="0"
           id="path160"
           d="m 350.2,134.2 c -1.8,-3.4 -1,-6 2.5,-7.9 l 5.9,-3.2 -2.2,-4 3.5,-1.9 2.2,4 7.1,-3.9 2.1,3.9 -7.1,3.9 2.1,3.9 -3.5,1.9 -2.1,-3.9 -5.2,2.9 c -1.8,1 -2.2,2.2 -1.4,3.7 0.3,0.5 0.7,1 1.3,1.5 l -2.8,1.5 c -1.1,-0.5 -1.8,-1.3 -2.4,-2.4 z"
           class="st6" /><path
           style="fill:#575756"
           inkscape:connector-curvature="0"
           id="path162"
           d="m 360.6,166.2 c -0.4,-1.9 0.4,-3.6 2.5,-5 -2.7,-1 -4.3,-2.6 -4.9,-5 -0.5,-2.3 -0.2,-4.3 1.1,-6.1 1.3,-1.8 3.1,-2.9 5.4,-3.5 2.3,-0.5 4.4,-0.3 6.3,0.8 1.9,1.1 3.1,2.7 3.6,5 0.5,2.2 -0.1,4.3 -1.9,6.5 l 17.2,-4 1,4.2 -24.9,5.8 c -1.3,0.3 -1.8,1.2 -1.4,2.7 0.1,0.5 0.3,0.9 0.7,1.3 l -3.1,0.7 c -0.7,-0.9 -1.2,-2 -1.6,-3.4 z m 8.7,-6.6 c 0.1,0 0.4,-0.2 0.8,-0.6 1.6,-1.3 2.1,-2.8 1.7,-4.7 -0.3,-1.4 -1.1,-2.4 -2.3,-3.1 -1.2,-0.7 -2.5,-0.9 -3.8,-0.6 -1.4,0.3 -2.4,1 -3.2,2.2 -0.8,1.1 -1,2.4 -0.7,3.7 0.4,1.9 1.6,3.1 3.5,3.5 0.5,0.1 0.9,0.2 1,0.2 l 3,-0.6 z"
           class="st6" /><path
           style="fill:#575756"
           inkscape:connector-curvature="0"
           id="path164"
           d="m 381.6,171.5 1.4,-1.4 c 0.8,1.2 1.9,2.2 3.4,3.3 0,-1.5 0.3,-2.5 0.9,-3.2 0.6,-0.7 1.3,-1 2.1,-1.1 1,-0.1 1.8,0.2 2.4,0.8 0.7,0.6 1,1.4 1.1,2.4 0.2,2.4 -1.1,3.7 -3.8,3.8 -1.5,0.1 -2.9,-0.3 -4.3,-1.3 -1.3,-0.8 -2.3,-2 -3.2,-3.3 z"
           class="st6" /><path
           style="fill:#575756"
           inkscape:connector-curvature="0"
           id="path166"
           d="m 359.2,206.6 c 0.4,-3.6 2.9,-5.1 7.3,-4.5 l 0.9,-7.7 -6.2,-0.8 0.6,-4.7 6.2,0.8 0.5,-4 4.1,0.5 -0.5,4 3.8,0.5 c 3.9,0.5 6.7,2.3 8.6,5.4 l -3.9,2.5 c -0.9,-1.8 -2.7,-2.8 -5.3,-3.2 l -3.8,-0.5 -0.9,7.7 8.2,1 c 2.5,0.3 4.6,-0.3 6.3,-1.7 1.8,-1.4 2.8,-3.4 3.1,-5.8 0.3,-2.1 -0.1,-4.1 -1,-5.9 -1,-2 -2.6,-3.2 -4.6,-3.4 -1.7,-0.2 -3.1,0.1 -4.3,0.8 l -2.5,-3.8 c 2,-1.4 4.4,-1.9 7.3,-1.5 1.9,0.2 3.7,1.1 5.3,2.4 1.5,1.3 2.6,2.9 3.3,4.9 0.8,2.1 1.1,4.5 0.8,6.9 -0.5,3.9 -1.9,6.9 -4.4,9.1 -2.6,2.2 -5.8,3.1 -9.7,2.6 l -12.9,-1.6 c -1.4,-0.2 -2.2,0.5 -2.3,1.9 -0.1,0.8 0,1.5 0.4,2.2 l -3.7,-0.5 c -0.7,-0.4 -1,-1.7 -0.7,-3.6 z"
           class="st6" /><path
           style="fill:#575756"
           inkscape:connector-curvature="0"
           id="path168"
           d="m 364.6,223.9 c 0.3,-0.9 1,-1.6 2.2,-2 -0.2,-1.1 -0.8,-2.1 -1.8,-2.9 -0.3,-0.2 -0.5,-0.4 -0.8,-0.4 l -8.1,-2.8 1.4,-4.2 15.6,5.3 -1.4,4.2 -3.5,-1.2 c 2,2.4 2.7,4.4 2.2,6 -0.3,0.8 -0.8,1.5 -1.6,1.9 -0.8,0.4 -1.6,0.5 -2.4,0.2 -0.9,-0.3 -1.5,-0.8 -1.8,-1.6 -0.2,-0.9 -0.2,-1.7 0,-2.5 z"
           class="st6" /><path
           style="fill:#575756"
           inkscape:connector-curvature="0"
           id="path170"
           d="m 338.6,230.5 3.8,0.3 c -0.3,0.8 -0.2,1.5 0,2.3 0.3,0.8 0.8,1.4 1.5,1.7 l 5.7,3.1 c -1.1,-2.6 -1.1,-4.9 -0.1,-6.8 1.1,-2.1 2.8,-3.4 5,-3.9 2.1,-0.5 4.2,-0.2 6.3,0.9 2.1,1.2 3.5,2.8 4.3,4.8 0.7,2.1 0.5,4.1 -0.6,6.3 -1,1.9 -2.9,3.1 -5.7,3.6 l 2.6,1.4 -2,3.7 -17.4,-9.5 c -1.5,-0.8 -2.6,-2 -3.3,-3.5 -0.8,-1.4 -0.8,-3 -0.1,-4.4 z m 16.9,10.6 c 0.2,0.1 0.5,0.1 1,0.1 2,0.1 3.4,-0.8 4.4,-2.5 0.7,-1.2 0.8,-2.5 0.4,-3.8 -0.4,-1.3 -1.2,-2.3 -2.5,-3 -1.2,-0.7 -2.5,-0.8 -3.8,-0.4 -1.3,0.4 -2.3,1.1 -3,2.3 -0.9,1.7 -0.9,3.4 0.2,5 0.3,0.5 0.5,0.7 0.7,0.8 l 2.6,1.5 z"
           class="st6" /><path
           style="fill:#575756"
           inkscape:connector-curvature="0"
           id="path172"
           d="m 341.7,250.2 c -1.1,0.7 -1.9,1.4 -2.5,2 -1.1,1.3 -1.7,2.8 -1.9,4.2 l -3,-2.5 c 0.4,-1.3 1.1,-2.6 2.2,-4 1.7,-2.1 3.8,-3.4 6.1,-3.8 2.4,-0.5 4.7,0.2 6.8,1.9 1.8,1.4 2.8,3.3 3.1,5.7 0.3,2.3 -0.3,4.4 -1.8,6.2 -2,2.5 -4.5,3.6 -7.7,3.5 l -1.3,-13.2 z m 6.4,7.4 c 0.9,-1.1 1.2,-2.2 0.9,-3.4 -0.2,-1.2 -0.9,-2.3 -2,-3.1 -0.5,-0.4 -1.3,-0.8 -2.5,-1.1 l 1.1,9 c 1,-0.2 1.8,-0.6 2.5,-1.4 z"
           class="st6" /><path
           style="fill:#575756"
           inkscape:connector-curvature="0"
           id="path174"
           d="m 319.2,266.6 c 1,-0.9 2.2,-1.2 3.6,-1 1.3,0.2 2.4,0.8 3.3,1.8 l 3.7,4.4 c 1.3,1.5 2.6,1.7 3.9,0.5 1.2,-1 1.4,-2.4 0.8,-4.1 -0.2,-0.5 -0.3,-0.8 -0.4,-1 l -6.4,-7.4 3.2,-2.8 10.8,12.5 -3.2,2.8 -1.7,-1.9 c 0.2,2.4 -0.5,4.2 -1.8,5.4 -1.3,1.1 -2.7,1.5 -4.2,1.4 -1.5,-0.2 -2.8,-0.9 -3.9,-2.2 l -3.6,-4.2 c -0.9,-1.1 -1.9,-1.1 -3.1,-0.1 -0.4,0.3 -0.7,0.8 -0.9,1.3 l -2,-2.4 c 0.2,-1.1 0.8,-2.1 1.9,-3 z"
           class="st6" /><path
           style="fill:#575756"
           inkscape:connector-curvature="0"
           id="path176"
           d="m 307.8,273.8 c 3.3,-2 6,-1.3 8,2.1 l 3.5,5.8 3.9,-2.4 2.1,3.4 -3.9,2.4 4.2,6.9 -3.8,2.3 -4.2,-6.9 -3.8,2.3 -2.1,-3.4 3.8,-2.3 -3.1,-5.1 c -1,-1.7 -2.3,-2.1 -3.8,-1.3 -0.5,0.3 -1,0.8 -1.4,1.4 l -1.7,-2.7 c 0.5,-1.1 1.3,-1.9 2.3,-2.5 z"
           class="st6" /></g></g></g></svg>